<svg xmlns="http://www.w3.org/2000/svg" height="20" viewBox="0 96 960 960" width="20" fill="currentColor"><path d="M176 836q-45-53-70.5-119T80 576q0-83 31.5-156T197 293q54-54 127-85.5T480 176q83 0 156 31.5T763 293q54 54 85.5 127T880 576q0 75-25.5 141T784 836q-11 13-28 13t-30-13q-12-12-12-28.5t11-30.5q33-42 52-93t19-108q0-132-92-224t-224-92q-132 0-224 92t-92 224q0 57 19 108t52 93q11 14 10.5 31T233 837q-12 12-29 12t-28-13Zm113-113q-23-31-36.5-68T239 576q0-100 70.5-170.5T480 335q100 0 170.5 70.5T721 576q0 42-13.5 79T671 723q-10 13-27.5 13T613 723q-11-11-12-27.5t10-32.5q12-19 19-41t7-46q0-65-46-111t-111-46q-65 0-111 46t-46 111q0 24 7 46t19 41q11 16 9.5 33T346 724q-13 13-30 12.5T289 723Zm191 253q-17 0-29.5-12.5T438 934V646q-18-11-29-29.5T398 576q0-33 24.5-57.5T480 494q33 0 57.5 24.5T562 576q0 22-11 40.5T522 646v288q0 17-12.5 29.5T480 976Z"/></svg>